<mxfile host="app.diagrams.net" modified="2024-05-04T12:24:14.691Z" agent="Mozilla/5.0 (Windows NT 10.0; Win64; x64) AppleWebKit/537.36 (KHTML, like Gecko) Chrome/122.0.0.0 YaBrowser/24.4.0.0 Safari/537.36" etag="6oGCxobTwdWlEgQg1ygX" version="24.3.1" type="device">
  <diagram name="Страница — 1" id="f5qaqixOcX6vG_OhwR0j">
    <mxGraphModel dx="810" dy="777" grid="1" gridSize="10" guides="1" tooltips="1" connect="1" arrows="1" fold="1" page="1" pageScale="1" pageWidth="649" pageHeight="1011" math="0" shadow="0">
      <root>
        <mxCell id="0" />
        <mxCell id="1" parent="0" />
        <mxCell id="dfWnUZiQalTf4Hm-opxF-7" value="" style="edgeStyle=orthogonalEdgeStyle;rounded=0;orthogonalLoop=1;jettySize=auto;html=1;endArrow=none;endFill=0;fontFamily=Times New Roman;" edge="1" parent="1" source="G2koELMS9Zzc0mMwnOTS-1" target="G2koELMS9Zzc0mMwnOTS-3">
          <mxGeometry relative="1" as="geometry" />
        </mxCell>
        <mxCell id="G2koELMS9Zzc0mMwnOTS-1" value="check_index()" style="html=1;dashed=0;whiteSpace=wrap;shape=mxgraph.dfd.start;fontFamily=Times New Roman;" parent="1" vertex="1">
          <mxGeometry x="40" y="40" width="120" height="40" as="geometry" />
        </mxCell>
        <mxCell id="dfWnUZiQalTf4Hm-opxF-6" value="" style="edgeStyle=orthogonalEdgeStyle;rounded=0;orthogonalLoop=1;jettySize=auto;html=1;endArrow=none;endFill=0;fontFamily=Times New Roman;" edge="1" parent="1" source="G2koELMS9Zzc0mMwnOTS-3" target="G2koELMS9Zzc0mMwnOTS-4">
          <mxGeometry relative="1" as="geometry" />
        </mxCell>
        <mxCell id="G2koELMS9Zzc0mMwnOTS-3" value="Определение строковой переменной, значение поля ввода индеса" style="rounded=0;whiteSpace=wrap;html=1;fontFamily=Times New Roman;" parent="1" vertex="1">
          <mxGeometry x="40" y="120" width="120" height="80" as="geometry" />
        </mxCell>
        <mxCell id="dfWnUZiQalTf4Hm-opxF-5" style="edgeStyle=orthogonalEdgeStyle;rounded=0;orthogonalLoop=1;jettySize=auto;html=1;exitX=0.5;exitY=1;exitDx=0;exitDy=0;entryX=0.5;entryY=0;entryDx=0;entryDy=0;endArrow=none;endFill=0;fontFamily=Times New Roman;" edge="1" parent="1" source="G2koELMS9Zzc0mMwnOTS-4" target="dfWnUZiQalTf4Hm-opxF-1">
          <mxGeometry relative="1" as="geometry" />
        </mxCell>
        <mxCell id="G2koELMS9Zzc0mMwnOTS-4" value="int I = 0; i &amp;lt; длины строки; i++" style="shape=loopLimit;whiteSpace=wrap;html=1;fontFamily=Times New Roman;" parent="1" vertex="1">
          <mxGeometry x="40" y="240" width="120" height="80" as="geometry" />
        </mxCell>
        <mxCell id="dfWnUZiQalTf4Hm-opxF-3" value="" style="edgeStyle=orthogonalEdgeStyle;rounded=0;orthogonalLoop=1;jettySize=auto;html=1;endArrow=none;endFill=0;fontFamily=Times New Roman;" edge="1" parent="1" source="G2koELMS9Zzc0mMwnOTS-5" target="dfWnUZiQalTf4Hm-opxF-2">
          <mxGeometry relative="1" as="geometry" />
        </mxCell>
        <mxCell id="G2koELMS9Zzc0mMwnOTS-5" value="I" style="shape=loopLimit;whiteSpace=wrap;html=1;direction=west;fontFamily=Times New Roman;" parent="1" vertex="1">
          <mxGeometry x="40" y="640" width="120" height="80" as="geometry" />
        </mxCell>
        <mxCell id="dfWnUZiQalTf4Hm-opxF-4" value="Да" style="edgeStyle=orthogonalEdgeStyle;rounded=0;orthogonalLoop=1;jettySize=auto;html=1;exitX=0.5;exitY=1;exitDx=0;exitDy=0;entryX=0.5;entryY=1;entryDx=0;entryDy=0;endArrow=none;endFill=0;fontFamily=Times New Roman;" edge="1" parent="1" source="dfWnUZiQalTf4Hm-opxF-1" target="G2koELMS9Zzc0mMwnOTS-5">
          <mxGeometry relative="1" as="geometry" />
        </mxCell>
        <mxCell id="dfWnUZiQalTf4Hm-opxF-9" value="Нет" style="edgeStyle=orthogonalEdgeStyle;rounded=0;orthogonalLoop=1;jettySize=auto;html=1;exitX=1;exitY=0.5;exitDx=0;exitDy=0;endArrow=none;endFill=0;fontFamily=Times New Roman;" edge="1" parent="1" source="dfWnUZiQalTf4Hm-opxF-1" target="dfWnUZiQalTf4Hm-opxF-8">
          <mxGeometry relative="1" as="geometry" />
        </mxCell>
        <mxCell id="dfWnUZiQalTf4Hm-opxF-1" value="i - символ от &lt;br&gt;0 до 9" style="rhombus;whiteSpace=wrap;html=1;fontFamily=Times New Roman;" vertex="1" parent="1">
          <mxGeometry x="40" y="360" width="120" height="80" as="geometry" />
        </mxCell>
        <mxCell id="dfWnUZiQalTf4Hm-opxF-2" value="Конец" style="html=1;dashed=0;whiteSpace=wrap;shape=mxgraph.dfd.start;fontFamily=Times New Roman;" vertex="1" parent="1">
          <mxGeometry x="40" y="760" width="120" height="40" as="geometry" />
        </mxCell>
        <mxCell id="dfWnUZiQalTf4Hm-opxF-11" value="Нет" style="edgeStyle=orthogonalEdgeStyle;rounded=0;orthogonalLoop=1;jettySize=auto;html=1;exitX=0.5;exitY=1;exitDx=0;exitDy=0;entryX=0.5;entryY=0;entryDx=0;entryDy=0;endArrow=none;endFill=0;fontFamily=Times New Roman;" edge="1" parent="1" source="dfWnUZiQalTf4Hm-opxF-8">
          <mxGeometry relative="1" as="geometry">
            <mxPoint x="260" y="480" as="targetPoint" />
          </mxGeometry>
        </mxCell>
        <mxCell id="dfWnUZiQalTf4Hm-opxF-15" value="Да" style="edgeStyle=orthogonalEdgeStyle;rounded=0;orthogonalLoop=1;jettySize=auto;html=1;exitX=1;exitY=0.5;exitDx=0;exitDy=0;entryX=0;entryY=0.5;entryDx=0;entryDy=0;endArrow=none;endFill=0;fontFamily=Times New Roman;" edge="1" parent="1" source="dfWnUZiQalTf4Hm-opxF-8" target="dfWnUZiQalTf4Hm-opxF-12">
          <mxGeometry relative="1" as="geometry" />
        </mxCell>
        <mxCell id="dfWnUZiQalTf4Hm-opxF-8" value="Длина строки &lt;br&gt;&amp;gt; 1" style="rhombus;whiteSpace=wrap;html=1;fontFamily=Times New Roman;" vertex="1" parent="1">
          <mxGeometry x="200" y="360" width="120" height="80" as="geometry" />
        </mxCell>
        <mxCell id="dfWnUZiQalTf4Hm-opxF-21" style="edgeStyle=orthogonalEdgeStyle;rounded=0;orthogonalLoop=1;jettySize=auto;html=1;exitX=0.5;exitY=1;exitDx=0;exitDy=0;endArrow=none;endFill=0;fontFamily=Times New Roman;" edge="1" parent="1" source="dfWnUZiQalTf4Hm-opxF-12">
          <mxGeometry relative="1" as="geometry">
            <mxPoint x="420" y="600" as="targetPoint" />
          </mxGeometry>
        </mxCell>
        <mxCell id="dfWnUZiQalTf4Hm-opxF-12" value="Удалить последний символ" style="rounded=0;whiteSpace=wrap;html=1;fontFamily=Times New Roman;" vertex="1" parent="1">
          <mxGeometry x="360" y="360" width="120" height="80" as="geometry" />
        </mxCell>
        <mxCell id="dfWnUZiQalTf4Hm-opxF-22" style="edgeStyle=orthogonalEdgeStyle;rounded=0;orthogonalLoop=1;jettySize=auto;html=1;exitX=0.5;exitY=1;exitDx=0;exitDy=0;endArrow=none;endFill=0;fontFamily=Times New Roman;" edge="1" parent="1" source="dfWnUZiQalTf4Hm-opxF-13">
          <mxGeometry relative="1" as="geometry">
            <mxPoint x="260" y="600" as="targetPoint" />
          </mxGeometry>
        </mxCell>
        <mxCell id="dfWnUZiQalTf4Hm-opxF-13" value="Очистить строку" style="rounded=0;whiteSpace=wrap;html=1;fontFamily=Times New Roman;" vertex="1" parent="1">
          <mxGeometry x="200" y="480" width="120" height="80" as="geometry" />
        </mxCell>
        <mxCell id="dfWnUZiQalTf4Hm-opxF-23" value="" style="endArrow=classic;html=1;rounded=0;fontFamily=Times New Roman;" edge="1" parent="1">
          <mxGeometry width="50" height="50" relative="1" as="geometry">
            <mxPoint x="420" y="600" as="sourcePoint" />
            <mxPoint x="100" y="600" as="targetPoint" />
          </mxGeometry>
        </mxCell>
      </root>
    </mxGraphModel>
  </diagram>
</mxfile>
